# AST/ASF file generated using VICON BodyLanguage
# -----------------------------------------------
:version 1.10
:name VICON
:units
  mass 1.0
  length 0.45
  angle deg
:documentation
   .ast/.asf automatically generated from VICON data using
   VICON BodyBuilder and BodyLanguage model FoxedUp or BRILLIANT.MOD
:root
   order TX TY TZ RX RY RZ
   axis XYZ
   position 0 0 0  
   orientation 0 0 0 
:bonedata
  begin
     id 1 
     name lhipjoint
     direction 0.646657 -0.683706 0.338203 
     length 2.4948 
     axis 0 0 0  XYZ
  end
  begin
     id 2 
     name lfemur
     direction 0.34202 -0.939693 0  
     length 6.79491  
     axis 0 0 20  XYZ
    dof rx ry rz
    limits (-160.0 20.0)
           (-70.0 70.0)
           (-60.0 70.0)
  end
  begin
     id 3 
     name ltibia
     direction 0.34202 -0.939693 0   
     length 7.56807   
     axis 0 0 20   XYZ
    dof rx
    limits (-10.0 170.0)
  end
  begin
     id 4 
     name lfoot
     direction 0.0679796 -0.186772 0.980048   
     length 2.53018   
     axis -90 7.62852e-016 20   XYZ
    dof rx rz
    limits (-45.0 90.0)
           (-70.0 20.0)
  end
  begin
     id 5 
     name ltoes
     direction 1.53625e-011 -4.21881e-011 1   
     length 1.26912   
     axis -90 7.62852e-016 20   XYZ
    dof rx
    limits (-90.0 20.0)
  end
  begin
     id 6 
     name rhipjoint
     direction -0.618868 -0.704065 0.348274   
     length 2.42265  
     axis 0 0 0  XYZ 
  end
  begin
     id 7 
     name rfemur
     direction -0.34202 -0.939693 0   
     length 6.73814   
     axis 0 0 -20   XYZ
    dof rx ry rz
    limits (-160.0 20.0)
           (-70.0 70.0)
           (-70.0 60.0)
  end
  begin
     id 8 
     name rtibia
     direction -0.34202 -0.939693 0   
     length 7.66799   
     axis 0 0 -20   XYZ
    dof rx
    limits (-10.0 170.0)
 end
 begin
     id 9 
     name rfoot
     direction -0.0727352 -0.199838 0.977125   
     length 2.57224  
     axis -90 -7.62852e-016 -20   XYZ
    dof rx rz
    limits (-45.0 90.0)
           (-20.0 70.0)
  end
  begin
     id 10 
     name rtoes
     direction -1.53501e-011 -4.21858e-011 1   
     length 1.28858   
     axis -90 -7.62852e-016 -20   XYZ
    dof rx
    limits (-90.0 20.0)
  end
  begin
     id 11 
     name lowerback
     direction -0.0172471 0.995767 -0.0902851   
     length 2.20206   
     axis 0 0 0   XYZ
    dof rx ry rz
    limits (-20.0 45.0)
           (-30.0 30.0)
           (-30.0 30.0)
  end
  begin
     id 12 
     name upperback
     direction -0.000110737 0.999714 0.0239043   
     length 2.19523   
     axis 0 0 0   XYZ
    dof rx ry rz
    limits (-20.0 45.0)
           (-30.0 30.0)
           (-30.0 30.0)
  end
  begin
     id 13 
     name thorax
     direction 0.00704869 0.997783 0.0661741   
     length 2.21977   
     axis 0 0 0   XYZ
    dof rx ry rz
    limits (-20.0 45.0)
           (-30.0 30.0)
           (-30.0 30.0)
  end
  begin
     id 14 
     name lowerneck
     direction -0.00407501 0.995527 0.0943846   
     length 1.83142   
     axis 0 0 0   XYZ
    dof rx ry rz
    limits (-20.0 45.0)
           (-30.0 30.0)
           (-30.0 30.0)
  end
  begin
     id 15 
     name upperneck
     direction 0.0640586 0.986486 -0.150807   
     length 1.84616   
     axis 0 0 0   XYZ
    dof rx ry rz
    limits (-20.0 45.0)
           (-30.0 30.0)
           (-30.0 30.0)
  end
  begin
     id 16
     name head
     direction 0.0188017 0.99791 -0.0618239  
     length 1.85932  
     axis 0 0 0   XYZ
    dof rx ry rz
    limits (-20.0 45.0)
           (-30.0 30.0)
           (-30.0 30.0)
  end
  begin
     id 17 
     name lclavicle
     direction 0.976074 0.206905 0.066852  
     length 3.81043  
     axis 0 0 0   XYZ
    dof ry rz
    limits (-20.0 10.0)
           (0.0 20.0)
  end
  begin
     id 18 
     name lhumerus
     direction 1 -4.48971e-011 1.86916e-027   
     length 5.37587   
     axis 180 -30 -90   XYZ
    dof rx ry rz
    limits (-60.0 90.0)
           (-90.0 90.0)
           (-90.0 90.0)
  end
  begin
     id 19
     name lradius
     direction 1 -4.48968e-011 1.69187e-027   
     length 3.35977   
     axis 180 -30 -90   XYZ
    dof rx
    limits (-10.0 170.0)
  end
  begin
     id 20
     name lwrist
     direction 1 -4.48968e-011 5.8978e-027   
     length 1.67988   
     axis -3.27506e-015 90 90   XYZ
    dof ry
    limits (-180.0 0.0)
 end
  begin
     id 21 
     name lhand
     direction 1 -4.49028e-011 1.18071e-026   
     length 0.561859   
     axis -7.52654e-015 90 90   XYZ
    dof rx rz
    limits (-90.0 90.0)
           (-45.0 45.0)
  end
  begin
     id 22 
     name lfingers
     direction 1 -4.48927e-011 2.35758e-026   
     length 0.452985   
     axis -1.50534e-014 90 90   XYZ
    dof rx
    limits (0.0 90.0)
  end
  begin
     id 23
     name lthumb
     direction 0.707107 -6.34898e-011 0.707107   
     length 0.650399   
     axis -90 45 5.69224e-014   XYZ
    dof rx rz
    limits (-45.0 45.0)
           (-45.0 45.0)
  end
  begin
     id 24 
     name rclavicle
     direction -0.988403 0.151789 0.00439714   
     length 3.6942  
     axis 0 0 0   XYZ 
    dof ry rz
    limits (-10.0 20.0)
           (-20.0 0.0)
  end
  begin
     id 25 
     name rhumerus
     direction -1 -4.48978e-011 1.62495e-027  
     length 5.22819   
     axis 180 30 90   XYZ
    dof rx ry rz
    limits (-90.0 60.0)
           (-90.0 90.0)
           (-90.0 90.0)
  end
  begin
     id 26 
     name rradius
     direction -1 -4.48961e-011 3.47796e-027   
     length 3.40764   
     axis 180 30 90   XYZ
    dof rx
    limits (-10.0 170.0)
  end
  begin
     id 27 
     name rwrist
     direction -1 -4.48949e-011 5.89602e-027   
     length 1.70382   
     axis -3.27506e-015 -90 -90   XYZ
    dof ry
    limits (-180.0 0.0)
  end
  begin
     id 28
     name rhand
     direction -1 -4.48977e-011 1.17973e-026   
     length 0.583255   
     axis -7.52654e-015 -90 -90   XYZ
    dof rx rz
    limits (-90.0 90.0)
           (-45.0 45.0)
  end
  begin
     id 29
     name rfingers
     direction -1 -4.49099e-011 2.36408e-026   
     length 0.470235   
     axis -1.50534e-014 -90 -90   XYZ
    dof rx
    limits (0.0 90.0)
  end
  begin
     id 30
     name rthumb
     direction -0.707107 -6.35011e-011 0.707107   
     length 0.675167   
     axis -90 -45 -5.69224e-014   XYZ
    dof rx rz
    limits (-45.0 45.0)
           (-45.0 45.0)
  end
:hierarchy
  begin
    root lhipjoint rhipjoint lowerback
    lhipjoint lfemur
    lfemur ltibia
    ltibia lfoot
    lfoot ltoes
    rhipjoint rfemur
    rfemur rtibia
    rtibia rfoot
    rfoot rtoes
    lowerback upperback
    upperback thorax
    thorax lowerneck lclavicle rclavicle
    lowerneck upperneck
    upperneck head
    lclavicle lhumerus
    lhumerus lradius
    lradius lwrist
    lwrist lhand lthumb
    lhand lfingers
    rclavicle rhumerus
    rhumerus rradius
    rradius rwrist
    rwrist rhand rthumb
    rhand rfingers
  end

#!OML:ASF G:\JayActor3\Patient Classification 1\Patient 1\Session 2\male.ASF
:FULLY-SPECIFIED
:DEGREES
417
root 30.8971 17.5702 -6.88145 294.362 -94.7167 -293.659
lowerback -1.02708 1.3652 0.244769
upperback 2.03161 1.8429 -2.68627
thorax 2.75966 0.940283 -2.83762
lowerneck -8.69044 -1.87112 -2.46637
upperneck 32.6968 -10.1363 17.5999
head 13.6891 -3.45558 5.91719
rclavicle -8.05078e-015 -1.27222e-014
rhumerus -50.4887 47.7252 -80.2438
rradius 89.6124
rwrist -9.30536
rhand -21.8865 22.1859
rfingers 7.12502
rthumb 4.51837 -7.74594
lclavicle -8.05078e-015 -1.27222e-014
lhumerus 12.1435 -27.5646 68.5303
lradius 132.054
lwrist 28.5618
lhand -0.90971 4.85054
lfingers 7.12502
lthumb 24.7187 33.2736
rfemur -13.3066 -6.32683 20.8562
rtibia 77.5289
rfoot -1.04029 2.11832
rtoes 3.77431
lfemur -12.3922 1.99487 -15.6614
ltibia 27.2518
lfoot 2.09438 4.44471
ltoes -20.1156
418
root 30.7433 17.7358 -6.86995 294.01 -95.1229 -293.394
lowerback -0.995685 0.833181 0.195987
upperback 2.34893 1.12952 -2.05407
thorax 3.01634 0.581032 -2.18181
lowerneck -8.56319 -1.71806 -2.08902
upperneck 32.7615 -9.96461 17.3399
head 13.6263 -3.37621 5.76057
rclavicle 1.19271e-015 -2.38542e-014
rhumerus -48.5347 49.8591 -75.8102
rradius 90.5365
rwrist -9.85182
rhand -21.8676 22.2047
rfingers 7.12502
rthumb 4.53658 -7.72668
lclavicle 1.19271e-015 -2.38542e-014
lhumerus 13.3382 -26.6529 66.3458
lradius 132.378
lwrist 28.7032
lhand -0.969928 4.89993
lfingers 7.12502
lthumb 24.661 33.3309
rfemur -15.7893 -6.72489 21.3995
rtibia 80.3675
rfoot -2.32129 2.91115
rtoes 2.01818
lfemur -11.1538 1.64601 -15.3704
ltibia 25.8914
lfoot 4.16679 5.80104
ltoes -19.1892
419
root 30.5898 17.8975 -6.86039 292.942 -95.4162 -292.451
lowerback -0.875781 0.29633 0.0541172
upperback 2.67524 0.404688 -1.42245
thorax 3.24931 0.210575 -1.47847
lowerneck -8.47719 -1.57562 -1.74442
upperneck 32.8172 -9.7765 17.0395
head 13.5661 -3.29286 5.59545
rclavicle -3.47873e-015 6.36111e-015
rhumerus -46.2342 51.9173 -71.097
rradius 91.316
rwrist -10.2792
rhand -21.8319 22.2752
rfingers 7.12502
rthumb 4.57112 -7.65545
lclavicle -3.47873e-015 6.36111e-015
lhumerus 14.3631 -25.6785 64.2659
lradius 132.687
lwrist 28.8992
lhand -1.02207 4.97451
lfingers 7.12502
lthumb 24.6111 33.4123
rfemur -18.1696 -7.14052 21.9185
rtibia 83.0381
rfoot -3.68542 3.60616
rtoes 0.212945
lfemur -9.97829 1.30724 -15.1835
ltibia 24.6079
lfoot 6.27376 7.25146
ltoes -17.9702
420
root 30.4381 18.0522 -6.85265 291.401 -95.5597 -291.051
lowerback -0.666475 -0.244114 -0.214677
upperback 2.99367 -0.328345 -0.809359
thorax 3.44496 -0.170932 -0.724582
lowerneck -8.43845 -1.44234 -1.43287
upperneck 32.8579 -9.56634 16.6961
head 13.5063 -3.20296 5.42138
rclavicle -9.93923e-016 7.95139e-015
rhumerus -43.6073 53.8524 -66.1194
rradius 91.9597
rwrist -10.5872
rhand -21.7948 22.3888
rfingers 7.12502
rthumb 4.6069 -7.54108
lclavicle -9.93923e-016 7.95139e-015
lhumerus 15.2339 -24.6474 62.2867
lradius 133
lwrist 29.139
lhand -1.03706 5.07879
lfingers 7.12502
lthumb 24.5967 33.5185
rfemur -20.4943 -7.57769 22.3492
rtibia 85.5881
rfoot -5.10293 4.1862
rtoes -1.47443
lfemur -8.8643 0.977195 -15.1474
ltibia 23.3646
lfoot 8.36994 8.75432
ltoes -16.5657
421
root 30.2886 18.1972 -6.84652 289.364 -95.5571 -289.141
lowerback -0.392322 -0.782884 -0.584286
upperback 3.29243 -1.06198 -0.233204
thorax 3.60892 -0.559011 0.0488626
lowerneck -8.45083 -1.31637 -1.14829
upperneck 32.8696 -9.33837 16.333
head 13.4441 -3.10579 5.24578
rclavicle -1.68967e-015 1.19271e-014
rhumerus -40.7045 55.5761 -60.936
rradius 92.4816
rwrist -10.7786
rhand -21.7859 22.506
rfingers 7.12502
rthumb 4.61555 -7.42368
lclavicle -1.68967e-015 1.19271e-014
lhumerus 15.9892 -23.5721 60.3831
lradius 133.331
lwrist 29.4101
lhand -1.00985 5.20664
lfingers 7.12502
lthumb 24.6228 33.6428
rfemur -22.8158 -8.04115 22.6806
rtibia 88.0436
rfoot -6.50722 4.60821
rtoes -3.07189
lfemur -7.83759 0.678905 -15.2615
ltibia 22.1586
lfoot 10.3766 10.2463
ltoes -15.1086
422
root 30.141 18.3306 -6.84112 286.896 -95.467 -286.757
lowerback -0.0958025 -1.31033 -0.979857
upperback 3.56549 -1.78414 0.304109
thorax 3.75897 -0.945188 0.799479
lowerneck -8.51579 -1.19769 -0.878737
upperneck 32.8397 -9.09505 15.9566
head 13.375 -3.00079 5.06822
rclavicle -4.87022e-015 2.38542e-015
rhumerus -37.5946 57.0066 -55.6205
rradius 92.9014
rwrist -10.9177
rhand -21.7855 22.6388
rfingers 7.12502
rthumb 4.61591 -7.2909
lclavicle -4.87022e-015 2.38542e-015
lhumerus 16.6515 -22.4493 58.5423
lradius 133.686
lwrist 29.6812
lhand -0.943221 5.36122
lfingers 7.12502
lthumb 24.6866 33.7887
rfemur -25.1697 -8.50252 22.956
rtibia 90.4025
rfoot -7.83643 4.82556
rtoes -4.61433
lfemur -6.92694 0.445952 -15.4751
ltibia 21.0087
lfoot 12.2105 11.6705
ltoes -13.6945
423
root 29.9934 18.4517 -6.83565 284.34 -95.3501 -284.214
lowerback 0.162655 -1.80501 -1.3246
upperback 3.81357 -2.46606 0.793079
thorax 3.92409 -1.31208 1.4743
lowerneck -8.61897 -1.09009 -0.60555
upperneck 32.7527 -8.85323 15.5906
head 13.2928 -2.89267 4.89213
rclavicle -7.55382e-015 1.51076e-014
rhumerus -34.4249 58.061 -50.3265
rradius 93.2404
rwrist -11.065
rhand -21.7895 22.7609
rfingers 7.12502
rthumb 4.61201 -7.16894
lclavicle -7.55382e-015 1.51076e-014
lhumerus 17.265 -21.3009 56.7487
lradius 134.057
lwrist 29.9246
lhand -0.867793 5.51617
lfingers 7.12502
lthumb 24.7589 33.9337
rfemur -27.5705 -8.90829 23.216
rtibia 92.6421
rfoot -9.06685 4.82505
rtoes -6.07888
lfemur -6.14976 0.303456 -15.7432
ltibia 19.9387
lfoot 13.73 13.0193
ltoes -12.3606
424
root 29.8445 18.5607 -6.8289 282.289 -95.2433 -282.098
lowerback 0.343719 -2.24823 -1.56679
upperback 4.03299 -3.08144 1.22324
thorax 4.11229 -1.64367 2.03221
lowerneck -8.72951 -0.99318 -0.307311
upperneck 32.602 -8.62249 15.2475
head 13.1895 -2.78456 4.71727
rclavicle 4.3832e-014 -3.57812e-015
rhumerus -31.3913 58.7101 -45.2495
rradius 93.5206
rwrist -11.2565
rhand -21.8067 22.8718
rfingers 7.12502
rthumb 4.59543 -7.05835
lclavicle 4.3832e-014 -3.57812e-015
lhumerus 17.842 -20.1451 55.0006
lradius 134.438
lwrist 30.1165
lhand -0.806294 5.65172
lfingers 7.12502
lthumb 24.8179 34.0612
rfemur -30.0165 -9.19064 23.4756
rtibia 94.728
rfoot -10.2017 4.61934
rtoes -7.52202
lfemur -5.5079 0.260832 -16.0465
ltibia 18.9623
lfoot 14.8692 14.2923
ltoes -11.2538
425
root 29.693 18.6577 -6.81976 281.274 -95.1563 -280.962
lowerback 0.44548 -2.62451 -1.68384
upperback 4.235 -3.60851 1.58339
thorax 4.32478 -1.92711 2.44803
lowerneck -8.82738 -0.907501 0.0233813
upperneck 32.392 -8.41818 14.951
head 13.0661 -2.68194 4.55046
rclavicle 3.40916e-014 -1.70955e-014
rhumerus -28.6888 58.9683 -40.5722
rradius 93.7746
rwrist -11.5155
rhand -21.8453 22.9633
rfingers 7.12502
rthumb 4.55818 -6.96764
lclavicle 3.40916e-014 -1.70955e-014
lhumerus 18.3998 -19.0065 53.3021
lradius 134.816
lwrist 30.2514
lhand -0.775964 5.75368
lfingers 7.12502
lthumb 24.8469 34.1591
rfemur -32.4502 -9.29497 23.7221
rtibia 96.6193
rfoot -11.2755 4.25199
rtoes -8.93222
lfemur -4.94953 0.318904 -16.3862
ltibia 18.0668
lfoot 15.6008 15.5166
ltoes -10.4125
